# xmcd
#
# Track frame offsets:
#	150
#	21283
#	39812
#	59916
#	75851
#	94580
#	111654
#	128511
#	147813
#	161967
#	177328
#	195488
#	213485
#	230149
#
# Disc length: 3340 seconds
# Revision: 1
# Processed by: cddbd v1.5.2PL0 Copyright (c) Steve Scherf et al.
# Submitted via: dBpowerAMP V12.0
#
DISCID=c10d0a0e
DTITLE=Ruff Kutt Blues Band - That's When The Blues Begin
DYEAR=2013
DGENRE=Blues
TTITLE0=Deep Elam Blues
TTITLE1=Blues In My Blood
TTITLE2=Don't It Make You Cry
TTITLE3=Oh Woman!
TTITLE4=Down So Low
TTITLE5=Bare Foot Blues
TTITLE6=Blues Ain't A Color
TTITLE7=That's When The Blues Begin
TTITLE8=That Woman Gives Me Fever
TTITLE9=I'm Over You Woman
TTITLE10=Going To Bluesville
TTITLE11=Touched By Her Flame
TTITLE12=Let's Dance
TTITLE13=When A Bluesman Goes To Heaven
EXTD=
EXTT0=
EXTT1=
EXTT2=
EXTT3=
EXTT4=
EXTT5=
EXTT6=
EXTT7=
EXTT8=
EXTT9=
EXTT10=
EXTT11=
EXTT12=
EXTT13=
PLAYORDER=
